HIERARCHY
ROOT hips
{
  OFFSET 0 10.6860622 2.3727825e-15
  CHANNELS 6 Xposition Yposition Zposition Yrotation Xrotation Zrotation
  JOINT leftUpperLeg
  {
    OFFSET 0.6642549969 -0.9402397400000004 0
    CHANNELS 3 Yrotation Xrotation Zrotation
    JOINT leftLowerLeg
    {
      OFFSET 0 -3.997221335632195 0
      CHANNELS 3 Yrotation Xrotation Zrotation
      JOINT leftFoot
      {
        OFFSET -0.13777839790000004 -4.6145792000000005 -0.22186036399999998
        CHANNELS 3 Yrotation Xrotation Zrotation
        JOINT leftToes
        {
          OFFSET -0.03777410834999995 -0.9130806927000008 0.85230013
          CHANNELS 3 Yrotation Xrotation Zrotation
          End Site
          {
            OFFSET -0.03777410834999995 -0.9130806927000008 0.85230013
          }
        }
      }
    }
  }
  JOINT rightUpperLeg
  {
    OFFSET -0.6642778626 -0.9402397400000004 0
    CHANNELS 3 Yrotation Xrotation Zrotation
    JOINT rightLowerLeg
    {
      OFFSET 0 -3.997221452859387 0
      CHANNELS 3 Yrotation Xrotation Zrotation
      JOINT rightFoot
      {
        OFFSET 0.1377926176 -4.6145792000000005 -0.22185782299999995
        CHANNELS 3 Yrotation Xrotation Zrotation
        JOINT rightToes
        {
          OFFSET 0.037780746850000047 -0.9130806927000008 0.85230167
          CHANNELS 3 Yrotation Xrotation Zrotation
          End Site
          {
            OFFSET 0.037780746850000047 -0.9130806927000008 0.85230167
          }
        }
      }
    }
  }
  JOINT spine
  {
    OFFSET 0 0.13988381660000015 0
    CHANNELS 3 Yrotation Xrotation Zrotation
    JOINT chest
    {
      OFFSET 0 0.6191039003973773 0
      CHANNELS 3 Yrotation Xrotation Zrotation
      JOINT upperChest
      {
        OFFSET 0 0.9855186130586943 0
        CHANNELS 3 Yrotation Xrotation Zrotation
        JOINT leftShoulder
        {
          OFFSET 0.1807663869 1.5087829790000005 0
          CHANNELS 3 Yrotation Xrotation Zrotation
          JOINT leftUpperArm
          {
            OFFSET 0.5985063006419806 0 0
            CHANNELS 3 Yrotation Xrotation Zrotation
            JOINT leftLowerArm
            {
              OFFSET 2.2993332369501065 0 0
              CHANNELS 3 Yrotation Xrotation Zrotation
              JOINT leftHand
              {
                OFFSET 2.395047042602395 0 0
                CHANNELS 3 Yrotation Xrotation Zrotation
                JOINT leftIndexProximal
                {
                  OFFSET 0.5766295810000004 0.04556643899499946 0.17265095988184
                  CHANNELS 3 Yrotation Xrotation Zrotation
                  JOINT leftIndexIntermediate
                  {
                    OFFSET 0.2957229000000008 -0.019352197700001517 -0.007932640616999987
                    CHANNELS 3 Yrotation Xrotation Zrotation
                    JOINT leftIndexDistal
                    {
                      OFFSET 0.19008243099999922 -0.012484908149998475 -0.002786250786000012
                      CHANNELS 3 Yrotation Xrotation Zrotation
                      End Site
                      {
                        OFFSET 0.19008243099999922 -0.012484908149998475 -0.002786250786000012
                      }
                    }
                  }
                }
                JOINT leftMiddleProximal
                {
                  OFFSET 0.5834975091000001 0.0524350405149987 0.02204081888183999
                  CHANNELS 3 Yrotation Xrotation Zrotation
                  JOINT leftMiddleIntermediate
                  {
                    OFFSET 0.33880573540000003 -0.019871473270000717 -0.00000971183179999946
                    CHANNELS 3 Yrotation Xrotation Zrotation
                    JOINT leftMiddleDistal
                    {
                      OFFSET 0.20676022730000088 -0.012221336379999448 0.0001471936708000235
                      CHANNELS 3 Yrotation Xrotation Zrotation
                      End Site
                      {
                        OFFSET 0.20676022730000088 -0.012221336379999448 0.0001471936708000235
                      }
                    }
                  }
                }
                JOINT leftLittleProximal
                {
                  OFFSET 0.5344154683999995 -0.012880921405001189 -0.24414037221816004
                  CHANNELS 3 Yrotation Xrotation Zrotation
                  JOINT leftLittleIntermediate
                  {
                    OFFSET 0.21758961730000093 -0.011650919939999227 0.011893592810000034
                    CHANNELS 3 Yrotation Xrotation Zrotation
                    JOINT leftLittleDistal
                    {
                      OFFSET 0.1475273964999999 -0.008152365682999818 0.006001092492999946
                      CHANNELS 3 Yrotation Xrotation Zrotation
                      End Site
                      {
                        OFFSET 0.1475273964999999 -0.008152365682999818 0.006001092492999946
                      }
                    }
                  }
                }
                JOINT leftRingProximal
                {
                  OFFSET 0.5799399463000003 0.026911854694997794 -0.12150566991816003
                  CHANNELS 3 Yrotation Xrotation Zrotation
                  JOINT leftRingIntermediate
                  {
                    OFFSET 0.26167887460000006 -0.013480186499999602 0.010996293000000053
                    CHANNELS 3 Yrotation Xrotation Zrotation
                    JOINT leftRingDistal
                    {
                      OFFSET 0.17667108799999987 -0.008990287899999228 0.0055541023999999065
                      CHANNELS 3 Yrotation Xrotation Zrotation
                      End Site
                      {
                        OFFSET 0.17667108799999987 -0.008990287899999228 0.0055541023999999065
                      }
                    }
                  }
                }
                JOINT leftThumbProximal
                {
                  OFFSET 0.11018806699999972 -0.09448718900500053 0.17047963138184
                  CHANNELS 3 Yrotation Xrotation Zrotation
                  JOINT leftThumbIntermediate
                  {
                    OFFSET 0.31062601459999983 -0.08126270900000132 0.15443142000000007
                    CHANNELS 3 Yrotation Xrotation Zrotation
                    JOINT leftThumbDistal
                    {
                      OFFSET 0.21627175790000086 -0.08833193599999878 0.018771167799999988
                      CHANNELS 3 Yrotation Xrotation Zrotation
                      End Site
                      {
                        OFFSET 0.21627175790000086 -0.08833193599999878 0.018771167799999988
                      }
                    }
                  }
                }
              }
            }
          }
        }
        JOINT neck
        {
          OFFSET 0 1.5463305265074576 0
          CHANNELS 3 Yrotation Xrotation Zrotation
          JOINT head
          {
            OFFSET 0 0.8456443600000344 0
            CHANNELS 3 Yrotation Xrotation Zrotation
            JOINT leftEye
            {
              OFFSET 0.30408573140000006 0.5104519199999995 0.1276382305
              CHANNELS 3 Yrotation Xrotation Zrotation
              End Site
              {
                OFFSET 0.30408573140000006 0.5104519199999995 0.1276382305
              }
            }
            JOINT rightEye
            {
              OFFSET -0.30409491089999996 0.5104519199999995 0.1276379445
              CHANNELS 3 Yrotation Xrotation Zrotation
              End Site
              {
                OFFSET -0.30409491089999996 0.5104519199999995 0.1276379445
              }
            }
            JOINT jaw
            {
              OFFSET -3.155239131000001e-7 -0.11984121820000082 0.60178107
              CHANNELS 3 Yrotation Xrotation Zrotation
              End Site
              {
                OFFSET -3.155239131000001e-7 -0.11984121820000082 0.60178107
              }
            }
          }
        }
        JOINT rightShoulder
        {
          OFFSET -0.1807303465 1.5087829790000005 0
          CHANNELS 3 Yrotation Xrotation Zrotation
          JOINT rightUpperArm
          {
            OFFSET -0.5985063796536958 0 0
            CHANNELS 3 Yrotation Xrotation Zrotation
            JOINT rightLowerArm
            {
              OFFSET -2.2993322059002854 0 0
              CHANNELS 3 Yrotation Xrotation Zrotation
              JOINT rightHand
              {
                OFFSET -2.395045314457259 0 0
                CHANNELS 3 Yrotation Xrotation Zrotation
                JOINT rightIndexProximal
                {
                  OFFSET -0.5764487688300002 0.0441371204405987 0.17361932004999997
                  CHANNELS 3 Yrotation Xrotation Zrotation
                  JOINT rightIndexIntermediate
                  {
                    OFFSET -0.29573011380000047 -0.01934826376999843 -0.007698921482999974
                    CHANNELS 3 Yrotation Xrotation Zrotation
                    JOINT rightIndexDistal
                    {
                      OFFSET -0.19008373999999884 -0.012503266380000655 -0.0026365778999999897
                      CHANNELS 3 Yrotation Xrotation Zrotation
                      End Site
                      {
                        OFFSET -0.19008373999999884 -0.012503266380000655 -0.0026365778999999897
                      }
                    }
                  }
                }
                JOINT rightMiddleProximal
                {
                  OFFSET -0.5834852037300005 0.05211639405060153 0.02307162440000001
                  CHANNELS 3 Yrotation Xrotation Zrotation
                  JOINT rightMiddleIntermediate
                  {
                    OFFSET -0.33880114510000003 -0.019952774050000954 0.0002455003561999819
                    CHANNELS 3 Yrotation Xrotation Zrotation
                    JOINT rightMiddleDistal
                    {
                      OFFSET -0.20675694929999955 -0.012273788999999091 0.00030209124000002766
                      CHANNELS 3 Yrotation Xrotation Zrotation
                      End Site
                      {
                        OFFSET -0.20675694929999955 -0.012273788999999091 0.00030209124000002766
                      }
                    }
                  }
                }
                JOINT rightLittleProximal
                {
                  OFFSET -0.5346811737299992 -0.011214256288399227 -0.24363941305000003
                  CHANNELS 3 Yrotation Xrotation Zrotation
                  JOINT rightLittleIntermediate
                  {
                    OFFSET -0.21757715980000092 -0.011771559690000988 0.01201554387
                    CHANNELS 3 Yrotation Xrotation Zrotation
                    JOINT rightLittleDistal
                    {
                      OFFSET -0.1475201849000004 -0.00822055339600003 0.006082065407000015
                      CHANNELS 3 Yrotation Xrotation Zrotation
                      End Site
                      {
                        OFFSET -0.1475201849000004 -0.00822055339600003 0.006082065407000015
                      }
                    }
                  }
                }
                JOINT rightRingProximal
                {
                  OFFSET -0.5800810755299999 0.027657985680600072 -0.12066365025000003
                  CHANNELS 3 Yrotation Xrotation Zrotation
                  JOINT rightRingIntermediate
                  {
                    OFFSET -0.26166445029999974 -0.013623118409999302 0.011164098990000045
                    CHANNELS 3 Yrotation Xrotation Zrotation
                    JOINT rightRingDistal
                    {
                      OFFSET -0.17666387530000027 -0.009072900100000503 0.005668185599999959
                      CHANNELS 3 Yrotation Xrotation Zrotation
                      End Site
                      {
                        OFFSET -0.17666387530000027 -0.009072900100000503 0.005668185599999959
                      }
                    }
                  }
                }
                JOINT rightThumbProximal
                {
                  OFFSET -0.10997596379000074 -0.09577489355940072 0.16989765924999997
                  CHANNELS 3 Yrotation Xrotation Zrotation
                  JOINT rightThumbIntermediate
                  {
                    OFFSET -0.31036620999999986 -0.08229339117999834 0.15440884469999996
                    CHANNELS 3 Yrotation Xrotation Zrotation
                    JOINT rightThumbDistal
                    {
                      OFFSET -0.21631306399999906 -0.08825326400000111 0.018656797720000014
                      CHANNELS 3 Yrotation Xrotation Zrotation
                      End Site
                      {
                        OFFSET -0.21631306399999906 -0.08825326400000111 0.018656797720000014
                      }
                    }
                  }
                }
              }
            }
          }
        }
      }
    }
  }
}
MOTION
Frames: 4
Frame Time: 0.03333333333333333
0.08024019747972488 -4.3442753385803226 -2.450232982635498 -0.23583590791824463 -27.2098640363 -1.5926712709934432 9.370372484123372 -60.93081155510002 -2.9566042215526074 90.75239808065827 88.61477855603727 95.94666977800992 -0.07001589197168034 1.8610197286408061 1.7003172533917494 0.016389776206631748 -2.513753552665778 -1.2212529286397298 -19.88258219004209 -58.99785201848471 4.399756538550452 -141.99584408768058 87.67838536827954 -144.5723260302249 0.7380285029641632 -5.186717962047474 -8.019628657936414 0.00001408557830140296 -1.9878232981919135 2.469190634194548e-8 -0.015046159516970027 33.619163916622085 1.432751148290213 -0.3203482689261354 1.4165006626635963 2.317928997045871 0 0 0 5.885580978498665 -0.08719362829041462 -5.172473470996911 -41.72183106641188 20.05757253817667 -67.87282744529757 -78.92525229220799 0.5979932780091103 0.7263436662354094 -6.073262098861303 25.931780454243658 30.84648100071773 0.15846070927043113 0.0020250199800472928 -1.4727558507118874 0.2469289677577926 0.0049445108502476735 -2.2955856387916023 0.12348148504341167 0.00124456925214421 -1.1477902518264123 0.1567365905584919 0.0019835654758732775 -1.456748644876929 0.24864901495406014 0.005019472843682611 -2.311578612564501 0.12348966257514173 0.0012434562823235961 -1.1477946265383054 4.218055038425376 0.09008729075425963 -1.011500854138096 -3.8136400901514107 -0.009303477248830416 -2.75307843277176 0.12348618078757048 0.001248652503815891 -1.1477874776188635 0.15846070927043113 0.002025014977467331 -1.4727558507118874 0.2469289677577926 0.004944510433366009 -2.2955856387916023 0.1234814717032294 0.0012445691479237944 -1.1477902518264123 -2.913678121642804 9.099093645951482 -8.209315488497005 13.449744428068133 4.725186320249612 3.943330035808598 4.303842588308061 -0.08739734692298812 3.690832101826707 0.1096795459012313 13.804480755453584 -1.9772490679252541 2.481816342330267 -26.145032995936436 -2.885706959380555 0 0 0 0 0 0 0 0 0 1.4245551590131058 1.1126575892294772 4.63117626180703 17.108993457899526 15.09068523710723 69.54252951255756 86.15741177341704 0.6905142627140213 -0.7384457067286174 0.6027043340361191 30.492954111557836 -16.92454676674255 -0.3472413902353024 0.009687507808489565 3.1940649565011183 -0.21509920757758783 0.0037149813302102533 1.9776945193469062 -0.10755458794134987 0.0009259003230315453 0.9888658428005054 -0.34724141691523874 0.009687541992786437 3.1940649565011183 -0.21509923425782587 0.0037149817470919174 1.9776945193469062 -0.10755458794134987 0.0009259002188111295 0.9888658428005054 -0.3472470197018561 0.00968614377166805 3.194061972935354 -0.2150896026918779 0.0037132454349610047 1.9776975057747797 -0.1075609912325814 0.000926061760455644 0.9888637086842321 -0.3472413902353024 0.009687491966986135 3.194065169612958 -0.21509923425782587 0.0037149817470919174 1.9776945193469062 -0.10755458794134987 0.0009259002188111295 0.9888658428005054 2.132890050511445 11.818149689683548 7.483034247409417 -11.061210790327925 22.80685657665806 4.518402185370775 -1.5900280138879823 7.8149283960859375 0.9236295227874587
0.07887952774763107 -4.345342023303223 -2.4383511543273926 -0.2984937566141422 -27.095113444506865 -1.6009600835164557 9.462665710833297 -61.11979602384854 -2.9445343788202862 97.52833530702549 88.62228618161868 102.7294408749699 -0.07029882255751571 2.0183628737691612 1.791435329950811 0.01458953320621414 -2.775753323672843 -1.2879470650316687 -20.006009579032995 -59.41487074924511 4.584977653230032 -146.6367129280081 87.54305526908202 -149.2286503027546 0.6324495794185571 -3.8216614580052077 -7.854383973006525 0.000009950155072490359 -2.5858606060455362 -0.000001731598049332075 -0.022547241106695093 33.55810445894207 1.4050825929294435 -0.31832175958634246 1.5779189368793063 2.431736170721129 0 0 0 5.95519825100934 -0.08876023140696825 -5.308552739879116 -41.65493584190143 20.03343765013064 -67.75654564940261 -78.86086796862796 0.5971456481214752 0.7262068827638921 -6.101024436069042 26.278411840162775 30.82181617417694 0.15846070927043113 0.0020250199800472928 -1.4727558507118874 0.2469289677577926 0.0049445108502476735 -2.2955856387916023 0.12348148504341167 0.00124456925214421 -1.1477902518264123 0.1567365905584919 0.0019835654758732775 -1.456748644876929 0.24864901495406014 0.005019472843682611 -2.311578612564501 0.12348966257514173 0.0012434562823235961 -1.1477946265383054 4.218055038425376 0.09008729075425963 -1.011500854138096 -3.8136400901514107 -0.009303477248830416 -2.75307843277176 0.12348618078757048 0.001248652503815891 -1.1477874776188635 0.15846070927043113 0.002025014977467331 -1.4727558507118874 0.2469289677577926 0.004944510433366009 -2.2955856387916023 0.1234814717032294 0.0012445691479237944 -1.1477902518264123 -2.913678121642804 9.099093645951482 -8.209315488497005 13.449744428068133 4.725186320249612 3.943330035808598 4.303842588308061 -0.08739734692298812 3.690832101826707 0.11132489550984925 13.800162322895583 -1.9934412102640837 2.4477159263886943 -26.128342603840135 -2.8217413148710055 0 0 0 0 0 0 0 0 0 1.4385146165027707 1.1135342600285116 4.431183152583794 17.1287836691848 14.980827397364187 69.7119539388536 86.1495940746563 0.6904236494062084 -0.738442461094203 0.6052596954223725 30.486438755317792 -16.974720838264506 -0.3472413902353024 0.009687507808489565 3.1940649565011183 -0.21509920757758783 0.0037149813302102533 1.9776945193469062 -0.10755458794134987 0.0009259003230315453 0.9888658428005054 -0.34724141691523874 0.009687541992786437 3.1940649565011183 -0.21509923425782587 0.0037149817470919174 1.9776945193469062 -0.10755458794134987 0.0009259002188111295 0.9888658428005054 -0.3472470197018561 0.00968614377166805 3.194061972935354 -0.2150896026918779 0.0037132454349610047 1.9776975057747797 -0.1075609912325814 0.000926061760455644 0.9888637086842321 -0.3472413902353024 0.009687491966986135 3.194065169612958 -0.21509923425782587 0.0037149817470919174 1.9776945193469062 -0.10755458794134987 0.0009259002188111295 0.9888658428005054 2.1328341807575186 11.818089503515816 7.482942853566147 -11.061210790327925 22.80685657665806 4.518402185370775 -1.5900280138879823 7.8149283960859375 0.9236295227874587
0.07830891013145447 -4.3443316053649905 -2.4357686042785645 -0.3221117594080921 -27.05416863784206 -1.596467529322801 9.435911406217999 -61.271676056099146 -2.9387834121597343 98.86348205729321 88.59527930737273 104.07919000009304 -0.05944083137029921 2.6241319263809753 1.7075301717165512 0.016565261235570245 -3.332044802754742 -1.2446047464327996 -19.983097570134102 -59.65520872935041 4.626784019535223 -147.3420442590961 87.48020691065554 -149.92865345467902 0.5612140165856369 -2.843446955561887 -7.755512208727094 0.0017856881515280062 -3.032830549042025 0.15492110788495964 -0.02247306689954324 33.54449147324239 1.3879411704250395 -0.3161750005367468 1.6516953944253592 2.4876723479439793 0 0 0 5.987270579804628 -0.08834612401351817 -5.381392978323048 -41.638862901301614 20.034101046421075 -67.69982866894199 -78.85159131719979 0.597062080487909 0.7261956873497004 -6.115085843465013 26.40934175202489 30.811969778676332 0.15846070927043113 0.0020250199800472928 -1.4727558507118874 0.2469289677577926 0.0049445108502476735 -2.2955856387916023 0.12348148504341167 0.00124456925214421 -1.1477902518264123 0.1567365905584919 0.0019835654758732775 -1.456748644876929 0.24864901495406014 0.005019472843682611 -2.311578612564501 0.12348966257514173 0.0012434562823235961 -1.1477946265383054 4.218055038425376 0.09008729075425963 -1.011500854138096 -3.8136400901514107 -0.009303477248830416 -2.75307843277176 0.12348618078757048 0.001248652503815891 -1.1477874776188635 0.15846070927043113 0.002025014977467331 -1.4727558507118874 0.2469289677577926 0.004944510433366009 -2.2955856387916023 0.1234814717032294 0.0012445691479237944 -1.1477902518264123 -2.913678121642804 9.099093645951482 -8.209315488497005 13.449744428068133 4.725186320249612 3.943330035808598 4.303842588308061 -0.08739734692298812 3.690832101826707 0.10911189470381075 13.794582414522262 -2.0073207959427726 2.4211928455317073 -26.130067642663352 -2.7952408666860986 0 0 0 0 0 0 0 0 0 1.4428229513933173 1.1134989284717258 4.331449573892323 17.138821383964743 14.93598214883579 69.79120417847595 86.14763937147336 0.6904168187211193 -0.7384626846455783 0.6038188019001299 30.486506125990932 -16.99177331968489 -0.3472413902353024 0.009687507808489565 3.1940649565011183 -0.21509920757758783 0.0037149813302102533 1.9776945193469062 -0.10755458794134987 0.0009259003230315453 0.9888658428005054 -0.34724141691523874 0.009687541992786437 3.1940649565011183 -0.21509923425782587 0.0037149817470919174 1.9776945193469062 -0.10755458794134987 0.0009259002188111295 0.9888658428005054 -0.3472470197018561 0.00968614377166805 3.194061972935354 -0.2150896026918779 0.0037132454349610047 1.9776975057747797 -0.1075609912325814 0.000926061760455644 0.9888637086842321 -0.3472413902353024 0.009687491966986135 3.194065169612958 -0.21509923425782587 0.0037149817470919174 1.9776945193469062 -0.10755458794134987 0.0009259002188111295 0.9888658428005054 2.132818449113255 11.818062463357808 7.48291468054404 -11.061210790327925 22.80685657665806 4.518402185370775 -1.5900280138879823 7.8149283960859375 0.9236295227874587
0.07723240554332733 -4.3392256330749515 -2.4354701042175293 -0.36633122691075737 -26.96889621260337 -1.6033831767437214 9.224809564045062 -61.83882323465324 -2.8819912185260663 98.63859496480848 88.51536000732511 103.92017328861186 -0.02005538898282266 5.451935109843563 1.2486584206120384 0.029815576132830594 -5.791299710638648 -0.9698037660796357 -19.80666085935127 -60.19928913254619 4.679789516116673 -145.9793010639432 87.38715615128474 -148.52734389754033 0.3866911930245666 -0.3290825380145203 -7.494064948919861 0.0014459970556147549 -4.566169299123092 1.3868244172849948 0.010957303912539212 33.51252454830389 1.3390653956098926 -0.3045326514835208 1.9049690486834563 2.6971510413282798 0 0 0 6.103302705034039 -0.08273686492455071 -5.672715318710428 -41.619622999215345 20.050023397942386 -67.47453057263999 -78.86007174999628 0.5971493835840525 0.7262446079058407 -6.167935265865702 26.804436835371696 30.786678510244418 0.15846070927043113 0.0020250199800472928 -1.4727558507118874 0.2469289677577926 0.0049445108502476735 -2.2955856387916023 0.12348148504341167 0.00124456925214421 -1.1477902518264123 0.1567365905584919 0.0019835654758732775 -1.456748644876929 0.24864901495406014 0.005019472843682611 -2.311578612564501 0.12348966257514173 0.0012434562823235961 -1.1477946265383054 4.218055038425376 0.09008729075425963 -1.011500854138096 -3.8136400901514107 -0.009303477248830416 -2.75307843277176 0.12348618078757048 0.001248652503815891 -1.1477874776188635 0.15846070927043113 0.002025014977467331 -1.4727558507118874 0.2469289677577926 0.004944510433366009 -2.2955856387916023 0.1234814717032294 0.0012445691479237944 -1.1477902518264123 -2.913678121642804 9.099093645951482 -8.209315488497005 13.449744428068133 4.725186320249612 3.943330035808598 4.303842588308061 -0.08739734692298812 3.690832101826707 0.09495240457148683 13.763348994394567 -2.074823989985374 2.312729376555803 -26.167813764573744 -2.7195236386338335 0 0 0 0 0 0 0 0 0 1.4514224544578598 1.1121812004703493 3.9655118263721776 17.165425339895577 14.78484471061209 70.06136977496747 86.15866489784084 0.6905540194367811 -0.738460540891193 0.5894965247986391 30.501483388147733 -17.03359228741378 -0.3472413902353024 0.009687507808489565 3.1940649565011183 -0.21509920757758783 0.0037149813302102533 1.9776945193469062 -0.10755458794134987 0.0009259003230315453 0.9888658428005054 -0.34724141691523874 0.009687541992786437 3.1940649565011183 -0.21509923425782587 0.0037149817470919174 1.9776945193469062 -0.10755458794134987 0.0009259002188111295 0.9888658428005054 -0.3472470197018561 0.00968614377166805 3.194061972935354 -0.2150896026918779 0.0037132454349610047 1.9776975057747797 -0.1075609912325814 0.000926061760455644 0.9888637086842321 -0.3472413902353024 0.009687491966986135 3.194065169612958 -0.21509923425782587 0.0037149817470919174 1.9776945193469062 -0.10755458794134987 0.0009259002188111295 0.9888658428005054 2.1328494765757817 11.818119160466377 7.4829718914297745 -11.061210790327925 22.80685657665806 4.518402185370775 -1.5900280138879823 7.8149283960859375 0.9236295227874587
